<mxfile host="app.diagrams.net" modified="2024-06-12T13:03:15.125Z" agent="Mozilla/5.0 (Windows NT 10.0; Win64; x64) AppleWebKit/537.36 (KHTML, like Gecko) Chrome/125.0.0.0 Safari/537.36" etag="7Z8wHnLIFTp9Lp9HcJC9" version="24.5.3" type="google" pages="3">
  <diagram id="LMbBOa_gpHhz4fDgrHLi" name="Страница — 21">
    <mxGraphModel grid="1" page="1" gridSize="10" guides="1" tooltips="1" connect="1" arrows="1" fold="1" pageScale="1" pageWidth="827" pageHeight="1169" math="0" shadow="0">
      <root>
        <mxCell id="0" />
        <mxCell id="1" parent="0" />
        <mxCell id="TX6MQ9MsFk2MGQJz8-Ql-1" style="edgeStyle=orthogonalEdgeStyle;rounded=0;orthogonalLoop=1;jettySize=auto;html=1;exitX=0.5;exitY=1;exitDx=0;exitDy=0;entryX=0.5;entryY=0;entryDx=0;entryDy=0;" edge="1" parent="1" source="TX6MQ9MsFk2MGQJz8-Ql-2" target="TX6MQ9MsFk2MGQJz8-Ql-4">
          <mxGeometry relative="1" as="geometry" />
        </mxCell>
        <mxCell id="TX6MQ9MsFk2MGQJz8-Ql-2" value="&lt;font style=&quot;font-size: 13px;&quot;&gt;Начало&lt;/font&gt;" style="rounded=1;whiteSpace=wrap;html=1;glass=0;shadow=0;arcSize=50;" vertex="1" parent="1">
          <mxGeometry x="351" width="90" height="60" as="geometry" />
        </mxCell>
        <mxCell id="TX6MQ9MsFk2MGQJz8-Ql-3" style="edgeStyle=orthogonalEdgeStyle;rounded=0;orthogonalLoop=1;jettySize=auto;html=1;exitX=0.5;exitY=1;exitDx=0;exitDy=0;entryX=0.499;entryY=0.195;entryDx=0;entryDy=0;entryPerimeter=0;" edge="1" parent="1" source="TX6MQ9MsFk2MGQJz8-Ql-4" target="TX6MQ9MsFk2MGQJz8-Ql-52">
          <mxGeometry relative="1" as="geometry">
            <mxPoint x="396" y="180" as="targetPoint" />
          </mxGeometry>
        </mxCell>
        <mxCell id="TX6MQ9MsFk2MGQJz8-Ql-4" value="Запустить приложение" style="rounded=0;whiteSpace=wrap;html=1;" vertex="1" parent="1">
          <mxGeometry x="351" y="90" width="90" height="60" as="geometry" />
        </mxCell>
        <mxCell id="TX6MQ9MsFk2MGQJz8-Ql-5" style="edgeStyle=orthogonalEdgeStyle;rounded=0;orthogonalLoop=1;jettySize=auto;html=1;exitX=0.5;exitY=1;exitDx=0;exitDy=0;entryX=0.5;entryY=0;entryDx=0;entryDy=0;" edge="1" parent="1" target="TX6MQ9MsFk2MGQJz8-Ql-12">
          <mxGeometry relative="1" as="geometry">
            <mxPoint x="396" y="240" as="sourcePoint" />
          </mxGeometry>
        </mxCell>
        <mxCell id="TX6MQ9MsFk2MGQJz8-Ql-6" style="edgeStyle=orthogonalEdgeStyle;rounded=0;orthogonalLoop=1;jettySize=auto;html=1;exitX=1;exitY=0.5;exitDx=0;exitDy=0;" edge="1" parent="1" source="TX6MQ9MsFk2MGQJz8-Ql-12">
          <mxGeometry relative="1" as="geometry">
            <mxPoint x="396" y="160" as="targetPoint" />
            <Array as="points">
              <mxPoint x="501" y="300" />
              <mxPoint x="501" y="160" />
            </Array>
          </mxGeometry>
        </mxCell>
        <mxCell id="TX6MQ9MsFk2MGQJz8-Ql-7" style="edgeStyle=orthogonalEdgeStyle;rounded=0;orthogonalLoop=1;jettySize=auto;html=1;exitX=0.5;exitY=1;exitDx=0;exitDy=0;entryX=0.5;entryY=0;entryDx=0;entryDy=0;" edge="1" parent="1" source="TX6MQ9MsFk2MGQJz8-Ql-12" target="TX6MQ9MsFk2MGQJz8-Ql-17">
          <mxGeometry relative="1" as="geometry">
            <Array as="points">
              <mxPoint x="396" y="460" />
              <mxPoint x="540" y="460" />
            </Array>
          </mxGeometry>
        </mxCell>
        <mxCell id="TX6MQ9MsFk2MGQJz8-Ql-8" style="edgeStyle=orthogonalEdgeStyle;rounded=0;orthogonalLoop=1;jettySize=auto;html=1;exitX=0.5;exitY=1;exitDx=0;exitDy=0;entryX=0.501;entryY=0.234;entryDx=0;entryDy=0;entryPerimeter=0;" edge="1" parent="1" source="TX6MQ9MsFk2MGQJz8-Ql-12" target="TX6MQ9MsFk2MGQJz8-Ql-53">
          <mxGeometry relative="1" as="geometry">
            <Array as="points">
              <mxPoint x="396" y="460" />
              <mxPoint x="430" y="460" />
              <mxPoint x="430" y="494" />
            </Array>
            <mxPoint x="311" y="480" as="targetPoint" />
          </mxGeometry>
        </mxCell>
        <mxCell id="TX6MQ9MsFk2MGQJz8-Ql-9" style="edgeStyle=orthogonalEdgeStyle;rounded=0;orthogonalLoop=1;jettySize=auto;html=1;exitX=0.5;exitY=1;exitDx=0;exitDy=0;entryX=0.5;entryY=0;entryDx=0;entryDy=0;" edge="1" parent="1" source="TX6MQ9MsFk2MGQJz8-Ql-12" target="TX6MQ9MsFk2MGQJz8-Ql-37">
          <mxGeometry relative="1" as="geometry">
            <Array as="points">
              <mxPoint x="396" y="460" />
              <mxPoint x="319" y="460" />
            </Array>
          </mxGeometry>
        </mxCell>
        <mxCell id="TX6MQ9MsFk2MGQJz8-Ql-10" style="edgeStyle=orthogonalEdgeStyle;rounded=0;orthogonalLoop=1;jettySize=auto;html=1;exitX=0.5;exitY=1;exitDx=0;exitDy=0;entryX=0;entryY=0.5;entryDx=0;entryDy=0;" edge="1" parent="1" source="TX6MQ9MsFk2MGQJz8-Ql-12" target="TX6MQ9MsFk2MGQJz8-Ql-33">
          <mxGeometry relative="1" as="geometry">
            <Array as="points">
              <mxPoint x="396" y="460" />
              <mxPoint x="254" y="460" />
              <mxPoint x="254" y="690" />
            </Array>
          </mxGeometry>
        </mxCell>
        <mxCell id="TX6MQ9MsFk2MGQJz8-Ql-11" style="edgeStyle=orthogonalEdgeStyle;rounded=0;orthogonalLoop=1;jettySize=auto;html=1;exitX=0.5;exitY=1;exitDx=0;exitDy=0;entryX=0.5;entryY=0;entryDx=0;entryDy=0;" edge="1" parent="1" source="TX6MQ9MsFk2MGQJz8-Ql-12" target="TX6MQ9MsFk2MGQJz8-Ql-41">
          <mxGeometry relative="1" as="geometry">
            <Array as="points">
              <mxPoint x="396" y="460" />
              <mxPoint x="190" y="460" />
            </Array>
          </mxGeometry>
        </mxCell>
        <mxCell id="TX6MQ9MsFk2MGQJz8-Ql-12" value="Данные введены&lt;br&gt;&amp;nbsp;верно?" style="rhombus;whiteSpace=wrap;html=1;" vertex="1" parent="1">
          <mxGeometry x="351" y="270" width="90" height="60" as="geometry" />
        </mxCell>
        <mxCell id="TX6MQ9MsFk2MGQJz8-Ql-13" value="Нет" style="text;html=1;strokeColor=none;fillColor=none;align=center;verticalAlign=middle;whiteSpace=wrap;rounded=0;" vertex="1" parent="1">
          <mxGeometry x="466" y="280" width="35" height="20" as="geometry" />
        </mxCell>
        <mxCell id="TX6MQ9MsFk2MGQJz8-Ql-14" style="edgeStyle=orthogonalEdgeStyle;rounded=0;orthogonalLoop=1;jettySize=auto;html=1;exitX=0.5;exitY=1;exitDx=0;exitDy=0;entryX=0.5;entryY=0;entryDx=0;entryDy=0;" edge="1" parent="1" source="TX6MQ9MsFk2MGQJz8-Ql-12" target="TX6MQ9MsFk2MGQJz8-Ql-21">
          <mxGeometry relative="1" as="geometry">
            <Array as="points">
              <mxPoint x="396" y="460" />
              <mxPoint x="650" y="460" />
            </Array>
          </mxGeometry>
        </mxCell>
        <mxCell id="TX6MQ9MsFk2MGQJz8-Ql-15" value="Да" style="text;html=1;strokeColor=none;fillColor=none;align=center;verticalAlign=middle;whiteSpace=wrap;rounded=0;" vertex="1" parent="1">
          <mxGeometry x="369" y="339" width="25" height="20" as="geometry" />
        </mxCell>
        <mxCell id="TX6MQ9MsFk2MGQJz8-Ql-16" style="edgeStyle=orthogonalEdgeStyle;rounded=0;orthogonalLoop=1;jettySize=auto;html=1;exitX=0.5;exitY=1;exitDx=0;exitDy=0;entryX=0.5;entryY=0;entryDx=0;entryDy=0;" edge="1" parent="1" source="TX6MQ9MsFk2MGQJz8-Ql-17" target="TX6MQ9MsFk2MGQJz8-Ql-19">
          <mxGeometry relative="1" as="geometry" />
        </mxCell>
        <mxCell id="TX6MQ9MsFk2MGQJz8-Ql-17" value="Нажатие на блюдо" style="rounded=0;whiteSpace=wrap;html=1;" vertex="1" parent="1">
          <mxGeometry x="495" y="480" width="90" height="60" as="geometry" />
        </mxCell>
        <mxCell id="TX6MQ9MsFk2MGQJz8-Ql-18" style="edgeStyle=orthogonalEdgeStyle;rounded=0;orthogonalLoop=1;jettySize=auto;html=1;exitX=0.5;exitY=1;exitDx=0;exitDy=0;entryX=0.5;entryY=0;entryDx=0;entryDy=0;" edge="1" parent="1" source="TX6MQ9MsFk2MGQJz8-Ql-19" target="TX6MQ9MsFk2MGQJz8-Ql-29">
          <mxGeometry relative="1" as="geometry" />
        </mxCell>
        <mxCell id="TX6MQ9MsFk2MGQJz8-Ql-19" value="Просмотр информации о блюде" style="rounded=0;whiteSpace=wrap;html=1;" vertex="1" parent="1">
          <mxGeometry x="495" y="560" width="90" height="60" as="geometry" />
        </mxCell>
        <mxCell id="TX6MQ9MsFk2MGQJz8-Ql-20" style="edgeStyle=orthogonalEdgeStyle;rounded=0;orthogonalLoop=1;jettySize=auto;html=1;exitX=0.5;exitY=1;exitDx=0;exitDy=0;entryX=0.5;entryY=0;entryDx=0;entryDy=0;" edge="1" parent="1" source="TX6MQ9MsFk2MGQJz8-Ql-21" target="TX6MQ9MsFk2MGQJz8-Ql-23">
          <mxGeometry relative="1" as="geometry" />
        </mxCell>
        <mxCell id="TX6MQ9MsFk2MGQJz8-Ql-21" value="Выбор категории блюда в меню" style="rounded=0;whiteSpace=wrap;html=1;" vertex="1" parent="1">
          <mxGeometry x="605" y="480" width="90" height="60" as="geometry" />
        </mxCell>
        <mxCell id="TX6MQ9MsFk2MGQJz8-Ql-22" style="edgeStyle=orthogonalEdgeStyle;rounded=0;orthogonalLoop=1;jettySize=auto;html=1;exitX=0.5;exitY=1;exitDx=0;exitDy=0;entryX=0.5;entryY=0;entryDx=0;entryDy=0;" edge="1" parent="1" source="TX6MQ9MsFk2MGQJz8-Ql-23" target="TX6MQ9MsFk2MGQJz8-Ql-29">
          <mxGeometry relative="1" as="geometry" />
        </mxCell>
        <mxCell id="TX6MQ9MsFk2MGQJz8-Ql-23" value="Просмотр блюд" style="rounded=0;whiteSpace=wrap;html=1;" vertex="1" parent="1">
          <mxGeometry x="605" y="560" width="90" height="60" as="geometry" />
        </mxCell>
        <mxCell id="TX6MQ9MsFk2MGQJz8-Ql-24" style="edgeStyle=orthogonalEdgeStyle;rounded=0;orthogonalLoop=1;jettySize=auto;html=1;exitX=0.5;exitY=1;exitDx=0;exitDy=0;entryX=0.5;entryY=0;entryDx=0;entryDy=0;" edge="1" parent="1" source="TX6MQ9MsFk2MGQJz8-Ql-53" target="TX6MQ9MsFk2MGQJz8-Ql-26">
          <mxGeometry relative="1" as="geometry">
            <mxPoint x="355" y="540" as="sourcePoint" />
          </mxGeometry>
        </mxCell>
        <mxCell id="TX6MQ9MsFk2MGQJz8-Ql-25" style="edgeStyle=orthogonalEdgeStyle;rounded=0;orthogonalLoop=1;jettySize=auto;html=1;exitX=0.5;exitY=1;exitDx=0;exitDy=0;entryX=0.5;entryY=0;entryDx=0;entryDy=0;" edge="1" parent="1" source="TX6MQ9MsFk2MGQJz8-Ql-26" target="TX6MQ9MsFk2MGQJz8-Ql-29">
          <mxGeometry relative="1" as="geometry" />
        </mxCell>
        <mxCell id="TX6MQ9MsFk2MGQJz8-Ql-26" value="Просмотр блюд" style="rounded=0;whiteSpace=wrap;html=1;" vertex="1" parent="1">
          <mxGeometry x="384" y="560" width="90" height="60" as="geometry" />
        </mxCell>
        <mxCell id="TX6MQ9MsFk2MGQJz8-Ql-27" style="edgeStyle=orthogonalEdgeStyle;rounded=0;orthogonalLoop=1;jettySize=auto;html=1;exitX=0.5;exitY=1;exitDx=0;exitDy=0;entryX=0.5;entryY=0;entryDx=0;entryDy=0;" edge="1" parent="1" source="TX6MQ9MsFk2MGQJz8-Ql-29" target="TX6MQ9MsFk2MGQJz8-Ql-31">
          <mxGeometry relative="1" as="geometry" />
        </mxCell>
        <mxCell id="TX6MQ9MsFk2MGQJz8-Ql-28" style="edgeStyle=orthogonalEdgeStyle;rounded=0;orthogonalLoop=1;jettySize=auto;html=1;exitX=1;exitY=0.5;exitDx=0;exitDy=0;" edge="1" parent="1" source="TX6MQ9MsFk2MGQJz8-Ql-29">
          <mxGeometry relative="1" as="geometry">
            <mxPoint x="396" y="360" as="targetPoint" />
            <Array as="points">
              <mxPoint x="710" y="690" />
              <mxPoint x="710" y="360" />
            </Array>
          </mxGeometry>
        </mxCell>
        <mxCell id="TX6MQ9MsFk2MGQJz8-Ql-29" value="Добавить &lt;br&gt;блюдо ?" style="rhombus;whiteSpace=wrap;html=1;" vertex="1" parent="1">
          <mxGeometry x="474" y="660" width="90" height="60" as="geometry" />
        </mxCell>
        <mxCell id="TX6MQ9MsFk2MGQJz8-Ql-30" style="edgeStyle=orthogonalEdgeStyle;rounded=0;orthogonalLoop=1;jettySize=auto;html=1;exitX=0.5;exitY=1;exitDx=0;exitDy=0;" edge="1" parent="1" source="TX6MQ9MsFk2MGQJz8-Ql-31">
          <mxGeometry relative="1" as="geometry">
            <mxPoint x="396" y="360" as="targetPoint" />
            <Array as="points">
              <mxPoint x="519" y="830" />
              <mxPoint x="710" y="830" />
              <mxPoint x="710" y="360" />
            </Array>
          </mxGeometry>
        </mxCell>
        <mxCell id="TX6MQ9MsFk2MGQJz8-Ql-31" value="Нажатие на кнопку добавления блюда" style="rounded=0;whiteSpace=wrap;html=1;" vertex="1" parent="1">
          <mxGeometry x="474" y="750" width="90" height="60" as="geometry" />
        </mxCell>
        <mxCell id="TX6MQ9MsFk2MGQJz8-Ql-32" style="edgeStyle=orthogonalEdgeStyle;rounded=0;orthogonalLoop=1;jettySize=auto;html=1;exitX=0.5;exitY=1;exitDx=0;exitDy=0;entryX=0.5;entryY=0;entryDx=0;entryDy=0;" edge="1" parent="1" source="TX6MQ9MsFk2MGQJz8-Ql-33" target="TX6MQ9MsFk2MGQJz8-Ql-35">
          <mxGeometry relative="1" as="geometry" />
        </mxCell>
        <mxCell id="TX6MQ9MsFk2MGQJz8-Ql-33" value="Нажатие на кнопку вызова официанта" style="rounded=0;whiteSpace=wrap;html=1;" vertex="1" parent="1">
          <mxGeometry x="274" y="660" width="90" height="60" as="geometry" />
        </mxCell>
        <mxCell id="TX6MQ9MsFk2MGQJz8-Ql-34" style="edgeStyle=orthogonalEdgeStyle;rounded=0;orthogonalLoop=1;jettySize=auto;html=1;exitX=0.5;exitY=1;exitDx=0;exitDy=0;" edge="1" parent="1" source="TX6MQ9MsFk2MGQJz8-Ql-35">
          <mxGeometry relative="1" as="geometry">
            <mxPoint x="396" y="360" as="targetPoint" />
            <Array as="points">
              <mxPoint x="319" y="830" />
              <mxPoint x="710" y="830" />
              <mxPoint x="710" y="360" />
            </Array>
          </mxGeometry>
        </mxCell>
        <mxCell id="TX6MQ9MsFk2MGQJz8-Ql-35" value="Просмотр уведомления" style="rounded=0;whiteSpace=wrap;html=1;" vertex="1" parent="1">
          <mxGeometry x="274" y="750" width="90" height="60" as="geometry" />
        </mxCell>
        <mxCell id="TX6MQ9MsFk2MGQJz8-Ql-36" style="edgeStyle=orthogonalEdgeStyle;rounded=0;orthogonalLoop=1;jettySize=auto;html=1;exitX=0.5;exitY=1;exitDx=0;exitDy=0;entryX=0.5;entryY=0;entryDx=0;entryDy=0;" edge="1" parent="1" source="TX6MQ9MsFk2MGQJz8-Ql-37" target="TX6MQ9MsFk2MGQJz8-Ql-39">
          <mxGeometry relative="1" as="geometry" />
        </mxCell>
        <mxCell id="TX6MQ9MsFk2MGQJz8-Ql-37" value="Выбор пункта сортировки" style="rounded=0;whiteSpace=wrap;html=1;" vertex="1" parent="1">
          <mxGeometry x="274" y="480" width="90" height="60" as="geometry" />
        </mxCell>
        <mxCell id="TX6MQ9MsFk2MGQJz8-Ql-38" style="edgeStyle=orthogonalEdgeStyle;rounded=0;orthogonalLoop=1;jettySize=auto;html=1;exitX=0.5;exitY=1;exitDx=0;exitDy=0;entryX=0.5;entryY=0;entryDx=0;entryDy=0;" edge="1" parent="1" source="TX6MQ9MsFk2MGQJz8-Ql-39" target="TX6MQ9MsFk2MGQJz8-Ql-29">
          <mxGeometry relative="1" as="geometry" />
        </mxCell>
        <mxCell id="TX6MQ9MsFk2MGQJz8-Ql-39" value="Просмотр блюд" style="rounded=0;whiteSpace=wrap;html=1;" vertex="1" parent="1">
          <mxGeometry x="274" y="560" width="90" height="60" as="geometry" />
        </mxCell>
        <mxCell id="TX6MQ9MsFk2MGQJz8-Ql-40" style="edgeStyle=orthogonalEdgeStyle;rounded=0;orthogonalLoop=1;jettySize=auto;html=1;exitX=0.5;exitY=1;exitDx=0;exitDy=0;entryX=0.5;entryY=0;entryDx=0;entryDy=0;" edge="1" parent="1" source="TX6MQ9MsFk2MGQJz8-Ql-41" target="TX6MQ9MsFk2MGQJz8-Ql-46">
          <mxGeometry relative="1" as="geometry">
            <Array as="points">
              <mxPoint x="190" y="590" />
            </Array>
          </mxGeometry>
        </mxCell>
        <mxCell id="TX6MQ9MsFk2MGQJz8-Ql-41" value="Нажатие на кнопку &lt;br&gt;&quot;Мой заказ&quot;" style="rounded=0;whiteSpace=wrap;html=1;" vertex="1" parent="1">
          <mxGeometry x="145" y="490" width="90" height="60" as="geometry" />
        </mxCell>
        <mxCell id="TX6MQ9MsFk2MGQJz8-Ql-42" style="edgeStyle=orthogonalEdgeStyle;rounded=0;orthogonalLoop=1;jettySize=auto;html=1;exitX=0.5;exitY=1;exitDx=0;exitDy=0;entryX=0.5;entryY=0;entryDx=0;entryDy=0;" edge="1" parent="1" source="TX6MQ9MsFk2MGQJz8-Ql-43" target="TX6MQ9MsFk2MGQJz8-Ql-51">
          <mxGeometry relative="1" as="geometry">
            <Array as="points">
              <mxPoint x="396" y="460" />
              <mxPoint x="110" y="460" />
            </Array>
          </mxGeometry>
        </mxCell>
        <mxCell id="TX6MQ9MsFk2MGQJz8-Ql-43" value="Просмотр окна с меню" style="rounded=0;whiteSpace=wrap;html=1;" vertex="1" parent="1">
          <mxGeometry x="351" y="375" width="90" height="60" as="geometry" />
        </mxCell>
        <mxCell id="TX6MQ9MsFk2MGQJz8-Ql-44" value="Да" style="text;html=1;strokeColor=none;fillColor=none;align=center;verticalAlign=middle;whiteSpace=wrap;rounded=0;" vertex="1" parent="1">
          <mxGeometry x="524" y="720" width="25" height="20" as="geometry" />
        </mxCell>
        <mxCell id="TX6MQ9MsFk2MGQJz8-Ql-45" value="Нет" style="text;html=1;strokeColor=none;fillColor=none;align=center;verticalAlign=middle;whiteSpace=wrap;rounded=0;" vertex="1" parent="1">
          <mxGeometry x="575" y="660" width="30" height="20" as="geometry" />
        </mxCell>
        <mxCell id="TX6MQ9MsFk2MGQJz8-Ql-46" value="А" style="ellipse;whiteSpace=wrap;html=1;aspect=fixed;" vertex="1" parent="1">
          <mxGeometry x="170" y="590" width="40" height="40" as="geometry" />
        </mxCell>
        <mxCell id="TX6MQ9MsFk2MGQJz8-Ql-47" style="edgeStyle=orthogonalEdgeStyle;rounded=0;orthogonalLoop=1;jettySize=auto;html=1;exitX=0;exitY=0.5;exitDx=0;exitDy=0;" edge="1" parent="1" source="TX6MQ9MsFk2MGQJz8-Ql-48">
          <mxGeometry relative="1" as="geometry">
            <mxPoint x="396" y="360" as="targetPoint" />
            <Array as="points">
              <mxPoint x="730" y="360" />
              <mxPoint x="730" y="360" />
            </Array>
          </mxGeometry>
        </mxCell>
        <mxCell id="TX6MQ9MsFk2MGQJz8-Ql-48" value="B" style="ellipse;whiteSpace=wrap;html=1;aspect=fixed;" vertex="1" parent="1">
          <mxGeometry x="717" y="340" width="40" height="40" as="geometry" />
        </mxCell>
        <mxCell id="TX6MQ9MsFk2MGQJz8-Ql-49" style="edgeStyle=orthogonalEdgeStyle;rounded=0;orthogonalLoop=1;jettySize=auto;html=1;exitX=1;exitY=0.5;exitDx=0;exitDy=0;" edge="1" parent="1" source="TX6MQ9MsFk2MGQJz8-Ql-50">
          <mxGeometry relative="1" as="geometry">
            <mxPoint x="396.5" y="359.76" as="targetPoint" />
            <Array as="points">
              <mxPoint x="265" y="360" />
            </Array>
            <mxPoint x="215" y="390" as="sourcePoint" />
          </mxGeometry>
        </mxCell>
        <mxCell id="TX6MQ9MsFk2MGQJz8-Ql-50" value="C" style="ellipse;whiteSpace=wrap;html=1;aspect=fixed;" vertex="1" parent="1">
          <mxGeometry x="215" y="340" width="40" height="40" as="geometry" />
        </mxCell>
        <mxCell id="TX6MQ9MsFk2MGQJz8-Ql-51" value="D" style="ellipse;whiteSpace=wrap;html=1;aspect=fixed;" vertex="1" parent="1">
          <mxGeometry x="90" y="490" width="40" height="40" as="geometry" />
        </mxCell>
        <mxCell id="TX6MQ9MsFk2MGQJz8-Ql-52" value="&lt;br&gt;Ввод&lt;br style=&quot;border-color: var(--border-color);&quot;&gt;данных для входа&amp;nbsp;" style="html=1;strokeWidth=2;shape=manualInput;whiteSpace=wrap;rounded=1;size=26;arcSize=11;" vertex="1" parent="1">
          <mxGeometry x="351" y="180" width="90" height="60" as="geometry" />
        </mxCell>
        <mxCell id="TX6MQ9MsFk2MGQJz8-Ql-53" value="&lt;br&gt;Ввод данных&lt;br style=&quot;border-color: var(--border-color);&quot;&gt;в строку поиска" style="html=1;strokeWidth=2;shape=manualInput;whiteSpace=wrap;rounded=1;size=26;arcSize=11;" vertex="1" parent="1">
          <mxGeometry x="384" y="480" width="90" height="60" as="geometry" />
        </mxCell>
        <mxCell id="TX6MQ9MsFk2MGQJz8-Ql-54" value="" style="strokeWidth=2;html=1;shape=mxgraph.flowchart.annotation_2;align=left;labelPosition=right;pointerEvents=1;direction=west;" vertex="1" parent="1">
          <mxGeometry x="40" y="485" width="50" height="50" as="geometry" />
        </mxCell>
        <mxCell id="TX6MQ9MsFk2MGQJz8-Ql-55" value="К стр. 30" style="text;html=1;strokeColor=none;fillColor=none;align=center;verticalAlign=middle;whiteSpace=wrap;rounded=0;" vertex="1" parent="1">
          <mxGeometry y="495" width="60" height="30" as="geometry" />
        </mxCell>
        <mxCell id="TX6MQ9MsFk2MGQJz8-Ql-56" value="" style="strokeWidth=2;html=1;shape=mxgraph.flowchart.annotation_2;align=left;labelPosition=right;pointerEvents=1;direction=west;" vertex="1" parent="1">
          <mxGeometry x="165" y="335" width="50" height="50" as="geometry" />
        </mxCell>
        <mxCell id="TX6MQ9MsFk2MGQJz8-Ql-57" value="Из стр. 29" style="text;html=1;strokeColor=none;fillColor=none;align=center;verticalAlign=middle;whiteSpace=wrap;rounded=0;" vertex="1" parent="1">
          <mxGeometry x="125" y="345" width="60" height="30" as="geometry" />
        </mxCell>
        <mxCell id="TX6MQ9MsFk2MGQJz8-Ql-58" value="" style="strokeWidth=2;html=1;shape=mxgraph.flowchart.annotation_2;align=left;labelPosition=right;pointerEvents=1;direction=east;" vertex="1" parent="1">
          <mxGeometry x="757" y="335" width="50" height="50" as="geometry" />
        </mxCell>
        <mxCell id="TX6MQ9MsFk2MGQJz8-Ql-59" value="Из стр. 29, 30" style="text;html=1;strokeColor=none;fillColor=none;align=center;verticalAlign=middle;whiteSpace=wrap;rounded=0;" vertex="1" parent="1">
          <mxGeometry x="783" y="345" width="44" height="30" as="geometry" />
        </mxCell>
        <mxCell id="car_p7eES5JCqTtlO9GY-4" value="" style="strokeWidth=2;html=1;shape=mxgraph.flowchart.annotation_2;align=left;labelPosition=right;pointerEvents=1;direction=west;" vertex="1" parent="1">
          <mxGeometry x="120" y="585" width="50" height="50" as="geometry" />
        </mxCell>
        <mxCell id="car_p7eES5JCqTtlO9GY-5" value="К стр. 29" style="text;html=1;strokeColor=none;fillColor=none;align=center;verticalAlign=middle;whiteSpace=wrap;rounded=0;" vertex="1" parent="1">
          <mxGeometry x="80" y="595" width="60" height="30" as="geometry" />
        </mxCell>
      </root>
    </mxGraphModel>
  </diagram>
  <diagram id="UZYy7RZz9bcRlIkExf0t" name="Страница — 22">
    <mxGraphModel grid="1" page="1" gridSize="10" guides="1" tooltips="1" connect="1" arrows="1" fold="1" pageScale="1" pageWidth="827" pageHeight="1169" math="0" shadow="0">
      <root>
        <mxCell id="0" />
        <mxCell id="1" parent="0" />
        <mxCell id="hBVrESJZ3tHIdd_8Hsx5-1" value="Нет" style="text;html=1;strokeColor=none;fillColor=none;align=center;verticalAlign=middle;whiteSpace=wrap;rounded=0;" vertex="1" parent="1">
          <mxGeometry x="515" y="1370" width="30" height="20" as="geometry" />
        </mxCell>
        <mxCell id="hBVrESJZ3tHIdd_8Hsx5-2" value="Да" style="text;html=1;strokeColor=none;fillColor=none;align=center;verticalAlign=middle;whiteSpace=wrap;rounded=0;" vertex="1" parent="1">
          <mxGeometry x="470" y="1419" width="25" height="20" as="geometry" />
        </mxCell>
        <mxCell id="hBVrESJZ3tHIdd_8Hsx5-3" style="edgeStyle=orthogonalEdgeStyle;rounded=0;orthogonalLoop=1;jettySize=auto;html=1;exitX=0.5;exitY=1;exitDx=0;exitDy=0;entryX=0.5;entryY=0;entryDx=0;entryDy=0;" edge="1" parent="1" source="hBVrESJZ3tHIdd_8Hsx5-53" target="hBVrESJZ3tHIdd_8Hsx5-8">
          <mxGeometry relative="1" as="geometry">
            <Array as="points">
              <mxPoint x="415" y="1199" />
              <mxPoint x="416" y="1199" />
              <mxPoint x="416" y="1209" />
              <mxPoint x="415" y="1209" />
            </Array>
          </mxGeometry>
        </mxCell>
        <mxCell id="hBVrESJZ3tHIdd_8Hsx5-4" style="edgeStyle=orthogonalEdgeStyle;rounded=0;orthogonalLoop=1;jettySize=auto;html=1;exitX=0.5;exitY=1;exitDx=0;exitDy=0;entryX=0.5;entryY=0;entryDx=0;entryDy=0;" edge="1" parent="1" source="hBVrESJZ3tHIdd_8Hsx5-8" target="hBVrESJZ3tHIdd_8Hsx5-11">
          <mxGeometry relative="1" as="geometry" />
        </mxCell>
        <mxCell id="hBVrESJZ3tHIdd_8Hsx5-5" style="edgeStyle=orthogonalEdgeStyle;rounded=0;orthogonalLoop=1;jettySize=auto;html=1;exitX=0.5;exitY=1;exitDx=0;exitDy=0;entryX=0.5;entryY=0;entryDx=0;entryDy=0;" edge="1" parent="1" source="hBVrESJZ3tHIdd_8Hsx5-8" target="hBVrESJZ3tHIdd_8Hsx5-16">
          <mxGeometry relative="1" as="geometry" />
        </mxCell>
        <mxCell id="hBVrESJZ3tHIdd_8Hsx5-6" style="edgeStyle=orthogonalEdgeStyle;rounded=0;orthogonalLoop=1;jettySize=auto;html=1;exitX=0.5;exitY=1;exitDx=0;exitDy=0;entryX=0.5;entryY=0;entryDx=0;entryDy=0;" edge="1" parent="1" source="hBVrESJZ3tHIdd_8Hsx5-8" target="hBVrESJZ3tHIdd_8Hsx5-21">
          <mxGeometry relative="1" as="geometry" />
        </mxCell>
        <mxCell id="hBVrESJZ3tHIdd_8Hsx5-7" style="edgeStyle=orthogonalEdgeStyle;rounded=0;orthogonalLoop=1;jettySize=auto;html=1;exitX=0.5;exitY=1;exitDx=0;exitDy=0;entryX=0.5;entryY=0;entryDx=0;entryDy=0;dashed=1;" edge="1" parent="1" source="hBVrESJZ3tHIdd_8Hsx5-8" target="hBVrESJZ3tHIdd_8Hsx5-28">
          <mxGeometry relative="1" as="geometry" />
        </mxCell>
        <mxCell id="hBVrESJZ3tHIdd_8Hsx5-8" value="Просмотр заказа" style="rounded=0;whiteSpace=wrap;html=1;" vertex="1" parent="1">
          <mxGeometry x="370" y="1259" width="90" height="60" as="geometry" />
        </mxCell>
        <mxCell id="hBVrESJZ3tHIdd_8Hsx5-9" style="edgeStyle=orthogonalEdgeStyle;rounded=0;orthogonalLoop=1;jettySize=auto;html=1;exitX=1;exitY=0.5;exitDx=0;exitDy=0;" edge="1" parent="1" source="hBVrESJZ3tHIdd_8Hsx5-11">
          <mxGeometry relative="1" as="geometry">
            <mxPoint x="415" y="1239" as="targetPoint" />
            <Array as="points">
              <mxPoint x="550" y="1389" />
              <mxPoint x="550" y="1239" />
            </Array>
          </mxGeometry>
        </mxCell>
        <mxCell id="hBVrESJZ3tHIdd_8Hsx5-10" style="edgeStyle=orthogonalEdgeStyle;rounded=0;orthogonalLoop=1;jettySize=auto;html=1;exitX=0.5;exitY=1;exitDx=0;exitDy=0;entryX=0.503;entryY=0.217;entryDx=0;entryDy=0;entryPerimeter=0;" edge="1" parent="1" source="hBVrESJZ3tHIdd_8Hsx5-11" target="hBVrESJZ3tHIdd_8Hsx5-59">
          <mxGeometry relative="1" as="geometry">
            <mxPoint x="515" y="1469" as="targetPoint" />
          </mxGeometry>
        </mxCell>
        <mxCell id="hBVrESJZ3tHIdd_8Hsx5-11" value="Добавить &lt;br&gt;коммент.?" style="rhombus;whiteSpace=wrap;html=1;" vertex="1" parent="1">
          <mxGeometry x="425" y="1359" width="90" height="60" as="geometry" />
        </mxCell>
        <mxCell id="hBVrESJZ3tHIdd_8Hsx5-12" style="edgeStyle=orthogonalEdgeStyle;rounded=0;orthogonalLoop=1;jettySize=auto;html=1;exitX=0.5;exitY=1;exitDx=0;exitDy=0;endArrow=none;endFill=0;" edge="1" parent="1" source="hBVrESJZ3tHIdd_8Hsx5-59">
          <mxGeometry relative="1" as="geometry">
            <mxPoint x="515" y="1529" as="sourcePoint" />
            <mxPoint x="420" y="1240" as="targetPoint" />
            <Array as="points">
              <mxPoint x="470" y="1530" />
              <mxPoint x="550" y="1530" />
              <mxPoint x="550" y="1240" />
            </Array>
          </mxGeometry>
        </mxCell>
        <mxCell id="hBVrESJZ3tHIdd_8Hsx5-13" style="edgeStyle=orthogonalEdgeStyle;rounded=0;orthogonalLoop=1;jettySize=auto;html=1;exitX=1;exitY=0.5;exitDx=0;exitDy=0;entryX=0;entryY=0.5;entryDx=0;entryDy=0;" edge="1" parent="1" source="hBVrESJZ3tHIdd_8Hsx5-18" target="hBVrESJZ3tHIdd_8Hsx5-54">
          <mxGeometry relative="1" as="geometry">
            <mxPoint x="445" y="530" as="targetPoint" />
            <mxPoint x="380" y="1379" as="sourcePoint" />
            <Array as="points">
              <mxPoint x="640" y="1570" />
              <mxPoint x="640" y="1570" />
            </Array>
          </mxGeometry>
        </mxCell>
        <mxCell id="hBVrESJZ3tHIdd_8Hsx5-14" style="edgeStyle=orthogonalEdgeStyle;rounded=0;orthogonalLoop=1;jettySize=auto;html=1;exitX=1;exitY=0.5;exitDx=0;exitDy=0;entryX=0;entryY=0.5;entryDx=0;entryDy=0;" edge="1" parent="1" source="hBVrESJZ3tHIdd_8Hsx5-16" target="hBVrESJZ3tHIdd_8Hsx5-18">
          <mxGeometry relative="1" as="geometry" />
        </mxCell>
        <mxCell id="hBVrESJZ3tHIdd_8Hsx5-15" style="edgeStyle=orthogonalEdgeStyle;rounded=0;orthogonalLoop=1;jettySize=auto;html=1;exitX=0.5;exitY=1;exitDx=0;exitDy=0;entryX=0.5;entryY=0;entryDx=0;entryDy=0;" edge="1" parent="1" source="hBVrESJZ3tHIdd_8Hsx5-16" target="hBVrESJZ3tHIdd_8Hsx5-36">
          <mxGeometry relative="1" as="geometry">
            <Array as="points" />
            <mxPoint x="400" y="1620" as="targetPoint" />
          </mxGeometry>
        </mxCell>
        <mxCell id="hBVrESJZ3tHIdd_8Hsx5-16" value="Заказать блюда?" style="rhombus;whiteSpace=wrap;html=1;" vertex="1" parent="1">
          <mxGeometry x="370" y="1540" width="90" height="60" as="geometry" />
        </mxCell>
        <mxCell id="hBVrESJZ3tHIdd_8Hsx5-17" value="Нет" style="text;html=1;strokeColor=none;fillColor=none;align=center;verticalAlign=middle;whiteSpace=wrap;rounded=0;" vertex="1" parent="1">
          <mxGeometry x="460" y="1550" width="30" height="20" as="geometry" />
        </mxCell>
        <mxCell id="hBVrESJZ3tHIdd_8Hsx5-18" value="Нажатие на кнопку возврата в меню" style="rounded=0;whiteSpace=wrap;html=1;" vertex="1" parent="1">
          <mxGeometry x="515" y="1540" width="90" height="60" as="geometry" />
        </mxCell>
        <mxCell id="hBVrESJZ3tHIdd_8Hsx5-19" style="edgeStyle=orthogonalEdgeStyle;rounded=0;orthogonalLoop=1;jettySize=auto;html=1;exitX=0;exitY=0.5;exitDx=0;exitDy=0;" edge="1" parent="1" source="hBVrESJZ3tHIdd_8Hsx5-21">
          <mxGeometry relative="1" as="geometry">
            <mxPoint x="415" y="1239" as="targetPoint" />
            <Array as="points">
              <mxPoint x="280" y="1389" />
              <mxPoint x="280" y="1239" />
            </Array>
          </mxGeometry>
        </mxCell>
        <mxCell id="hBVrESJZ3tHIdd_8Hsx5-20" style="edgeStyle=orthogonalEdgeStyle;rounded=0;orthogonalLoop=1;jettySize=auto;html=1;exitX=0.5;exitY=1;exitDx=0;exitDy=0;entryX=0.5;entryY=0;entryDx=0;entryDy=0;" edge="1" parent="1" source="hBVrESJZ3tHIdd_8Hsx5-21" target="hBVrESJZ3tHIdd_8Hsx5-24">
          <mxGeometry relative="1" as="geometry" />
        </mxCell>
        <mxCell id="hBVrESJZ3tHIdd_8Hsx5-21" value="Нужно изменить кол-во?" style="rhombus;whiteSpace=wrap;html=1;" vertex="1" parent="1">
          <mxGeometry x="315" y="1359" width="90" height="60" as="geometry" />
        </mxCell>
        <mxCell id="hBVrESJZ3tHIdd_8Hsx5-22" value="Нет" style="text;html=1;strokeColor=none;fillColor=none;align=center;verticalAlign=middle;whiteSpace=wrap;rounded=0;" vertex="1" parent="1">
          <mxGeometry x="285" y="1370" width="30" height="20" as="geometry" />
        </mxCell>
        <mxCell id="hBVrESJZ3tHIdd_8Hsx5-23" style="edgeStyle=orthogonalEdgeStyle;rounded=0;orthogonalLoop=1;jettySize=auto;html=1;exitX=0.5;exitY=1;exitDx=0;exitDy=0;" edge="1" parent="1" source="hBVrESJZ3tHIdd_8Hsx5-24">
          <mxGeometry relative="1" as="geometry">
            <mxPoint x="415" y="1239" as="targetPoint" />
            <Array as="points">
              <mxPoint x="360" y="1530" />
              <mxPoint x="280" y="1530" />
              <mxPoint x="280" y="1239" />
            </Array>
          </mxGeometry>
        </mxCell>
        <mxCell id="hBVrESJZ3tHIdd_8Hsx5-24" value="Нажатие на кнопку изменения количества" style="rounded=0;whiteSpace=wrap;html=1;" vertex="1" parent="1">
          <mxGeometry x="315" y="1454" width="90" height="60" as="geometry" />
        </mxCell>
        <mxCell id="hBVrESJZ3tHIdd_8Hsx5-25" value="Да" style="text;html=1;strokeColor=none;fillColor=none;align=center;verticalAlign=middle;whiteSpace=wrap;rounded=0;" vertex="1" parent="1">
          <mxGeometry x="360" y="1419" width="25" height="20" as="geometry" />
        </mxCell>
        <mxCell id="hBVrESJZ3tHIdd_8Hsx5-26" style="edgeStyle=orthogonalEdgeStyle;rounded=0;orthogonalLoop=1;jettySize=auto;html=1;exitX=0.5;exitY=1;exitDx=0;exitDy=0;entryX=0.5;entryY=0;entryDx=0;entryDy=0;" edge="1" parent="1" source="hBVrESJZ3tHIdd_8Hsx5-28" target="hBVrESJZ3tHIdd_8Hsx5-30">
          <mxGeometry relative="1" as="geometry" />
        </mxCell>
        <mxCell id="hBVrESJZ3tHIdd_8Hsx5-27" style="edgeStyle=orthogonalEdgeStyle;rounded=0;orthogonalLoop=1;jettySize=auto;html=1;exitX=0;exitY=0.5;exitDx=0;exitDy=0;" edge="1" parent="1" source="hBVrESJZ3tHIdd_8Hsx5-28">
          <mxGeometry relative="1" as="geometry">
            <mxPoint x="415" y="1239" as="targetPoint" />
            <Array as="points">
              <mxPoint x="140" y="1389" />
              <mxPoint x="140" y="1239" />
            </Array>
          </mxGeometry>
        </mxCell>
        <mxCell id="hBVrESJZ3tHIdd_8Hsx5-28" value="Нужно очистить&lt;br&gt;заказ?" style="rhombus;whiteSpace=wrap;html=1;" vertex="1" parent="1">
          <mxGeometry x="170" y="1359" width="90" height="60" as="geometry" />
        </mxCell>
        <mxCell id="hBVrESJZ3tHIdd_8Hsx5-29" style="edgeStyle=orthogonalEdgeStyle;rounded=0;orthogonalLoop=1;jettySize=auto;html=1;exitX=0.5;exitY=1;exitDx=0;exitDy=0;entryX=0.5;entryY=0;entryDx=0;entryDy=0;" edge="1" parent="1" source="hBVrESJZ3tHIdd_8Hsx5-30" target="hBVrESJZ3tHIdd_8Hsx5-32">
          <mxGeometry relative="1" as="geometry" />
        </mxCell>
        <mxCell id="hBVrESJZ3tHIdd_8Hsx5-30" value="Нажатие на кнопку очистки заказа" style="rounded=0;whiteSpace=wrap;html=1;" vertex="1" parent="1">
          <mxGeometry x="170" y="1454" width="90" height="60" as="geometry" />
        </mxCell>
        <mxCell id="hBVrESJZ3tHIdd_8Hsx5-31" style="edgeStyle=orthogonalEdgeStyle;rounded=0;orthogonalLoop=1;jettySize=auto;html=1;exitX=0.5;exitY=1;exitDx=0;exitDy=0;entryX=1;entryY=0.5;entryDx=0;entryDy=0;" edge="1" parent="1" source="hBVrESJZ3tHIdd_8Hsx5-32" target="hBVrESJZ3tHIdd_8Hsx5-55">
          <mxGeometry relative="1" as="geometry">
            <mxPoint x="445" y="529" as="targetPoint" />
            <Array as="points">
              <mxPoint x="215" y="1644" />
            </Array>
          </mxGeometry>
        </mxCell>
        <mxCell id="hBVrESJZ3tHIdd_8Hsx5-32" value="Подтверждение очистки" style="rounded=0;whiteSpace=wrap;html=1;" vertex="1" parent="1">
          <mxGeometry x="170" y="1540" width="90" height="60" as="geometry" />
        </mxCell>
        <mxCell id="hBVrESJZ3tHIdd_8Hsx5-33" value="Нет" style="text;html=1;strokeColor=none;fillColor=none;align=center;verticalAlign=middle;whiteSpace=wrap;rounded=0;" vertex="1" parent="1">
          <mxGeometry x="140" y="1370" width="30" height="20" as="geometry" />
        </mxCell>
        <mxCell id="hBVrESJZ3tHIdd_8Hsx5-34" value="Да" style="text;html=1;strokeColor=none;fillColor=none;align=center;verticalAlign=middle;whiteSpace=wrap;rounded=0;" vertex="1" parent="1">
          <mxGeometry x="210" y="1419" width="35" height="20" as="geometry" />
        </mxCell>
        <mxCell id="hBVrESJZ3tHIdd_8Hsx5-35" style="edgeStyle=orthogonalEdgeStyle;rounded=0;orthogonalLoop=1;jettySize=auto;html=1;exitX=0.5;exitY=1;exitDx=0;exitDy=0;entryX=0.5;entryY=0;entryDx=0;entryDy=0;" edge="1" parent="1" source="hBVrESJZ3tHIdd_8Hsx5-36" target="hBVrESJZ3tHIdd_8Hsx5-39">
          <mxGeometry relative="1" as="geometry" />
        </mxCell>
        <mxCell id="hBVrESJZ3tHIdd_8Hsx5-36" value="Нажатие на кнопку &quot;Заказать&quot;" style="rounded=0;whiteSpace=wrap;html=1;" vertex="1" parent="1">
          <mxGeometry x="370" y="1630" width="90" height="60" as="geometry" />
        </mxCell>
        <mxCell id="hBVrESJZ3tHIdd_8Hsx5-37" style="edgeStyle=orthogonalEdgeStyle;rounded=0;orthogonalLoop=1;jettySize=auto;html=1;exitX=0.5;exitY=1;exitDx=0;exitDy=0;entryX=0.5;entryY=0;entryDx=0;entryDy=0;" edge="1" parent="1" source="hBVrESJZ3tHIdd_8Hsx5-39" target="hBVrESJZ3tHIdd_8Hsx5-44">
          <mxGeometry relative="1" as="geometry">
            <Array as="points">
              <mxPoint x="415" y="1800" />
              <mxPoint x="364" y="1800" />
            </Array>
          </mxGeometry>
        </mxCell>
        <mxCell id="hBVrESJZ3tHIdd_8Hsx5-38" style="edgeStyle=orthogonalEdgeStyle;rounded=0;orthogonalLoop=1;jettySize=auto;html=1;exitX=0.5;exitY=1;exitDx=0;exitDy=0;entryX=0.5;entryY=0;entryDx=0;entryDy=0;" edge="1" parent="1" source="hBVrESJZ3tHIdd_8Hsx5-39" target="hBVrESJZ3tHIdd_8Hsx5-50">
          <mxGeometry relative="1" as="geometry">
            <Array as="points">
              <mxPoint x="415" y="1800" />
              <mxPoint x="480" y="1800" />
            </Array>
          </mxGeometry>
        </mxCell>
        <mxCell id="hBVrESJZ3tHIdd_8Hsx5-39" value="Просмотр заказа" style="rounded=0;whiteSpace=wrap;html=1;" vertex="1" parent="1">
          <mxGeometry x="370" y="1724" width="90" height="60" as="geometry" />
        </mxCell>
        <mxCell id="hBVrESJZ3tHIdd_8Hsx5-40" value="Да" style="text;html=1;strokeColor=none;fillColor=none;align=center;verticalAlign=middle;whiteSpace=wrap;rounded=0;" vertex="1" parent="1">
          <mxGeometry x="413" y="1599" width="27" height="20" as="geometry" />
        </mxCell>
        <mxCell id="hBVrESJZ3tHIdd_8Hsx5-41" style="edgeStyle=orthogonalEdgeStyle;rounded=0;orthogonalLoop=1;jettySize=auto;html=1;exitX=0.5;exitY=1;exitDx=0;exitDy=0;spacing=2;entryX=1;entryY=0.5;entryDx=0;entryDy=0;" edge="1" parent="1" source="hBVrESJZ3tHIdd_8Hsx5-47" target="y8vCSm7RG8_c_LNQfvW3-2">
          <mxGeometry relative="1" as="geometry">
            <mxPoint x="200" y="1850" as="targetPoint" />
            <Array as="points">
              <mxPoint x="364" y="1985" />
            </Array>
          </mxGeometry>
        </mxCell>
        <mxCell id="hBVrESJZ3tHIdd_8Hsx5-42" style="edgeStyle=orthogonalEdgeStyle;rounded=0;orthogonalLoop=1;jettySize=auto;html=1;exitX=0.5;exitY=1;exitDx=0;exitDy=0;entryX=0.5;entryY=0;entryDx=0;entryDy=0;" edge="1" parent="1" source="hBVrESJZ3tHIdd_8Hsx5-44" target="hBVrESJZ3tHIdd_8Hsx5-47">
          <mxGeometry relative="1" as="geometry" />
        </mxCell>
        <mxCell id="hBVrESJZ3tHIdd_8Hsx5-43" style="edgeStyle=orthogonalEdgeStyle;rounded=0;orthogonalLoop=1;jettySize=auto;html=1;exitX=0;exitY=0.5;exitDx=0;exitDy=0;" edge="1" parent="1" source="hBVrESJZ3tHIdd_8Hsx5-44">
          <mxGeometry relative="1" as="geometry">
            <mxPoint x="415" y="1700" as="targetPoint" />
            <Array as="points">
              <mxPoint x="290" y="1849" />
              <mxPoint x="290" y="1700" />
            </Array>
          </mxGeometry>
        </mxCell>
        <mxCell id="hBVrESJZ3tHIdd_8Hsx5-44" value="Заказать&lt;br&gt;еще?" style="rhombus;whiteSpace=wrap;html=1;" vertex="1" parent="1">
          <mxGeometry x="319" y="1819" width="90" height="60" as="geometry" />
        </mxCell>
        <mxCell id="hBVrESJZ3tHIdd_8Hsx5-45" value="Нет" style="text;html=1;strokeColor=none;fillColor=none;align=center;verticalAlign=middle;whiteSpace=wrap;rounded=0;" vertex="1" parent="1">
          <mxGeometry x="289" y="1830" width="30" height="20" as="geometry" />
        </mxCell>
        <mxCell id="hBVrESJZ3tHIdd_8Hsx5-46" value="Да" style="text;html=1;strokeColor=none;fillColor=none;align=center;verticalAlign=middle;whiteSpace=wrap;rounded=0;" vertex="1" parent="1">
          <mxGeometry x="370" y="1879" width="25" height="20" as="geometry" />
        </mxCell>
        <mxCell id="hBVrESJZ3tHIdd_8Hsx5-47" value="Нажатие на кнопку &quot;Добавить блюда&quot;" style="rounded=0;whiteSpace=wrap;html=1;" vertex="1" parent="1">
          <mxGeometry x="319" y="1910" width="90" height="60" as="geometry" />
        </mxCell>
        <mxCell id="hBVrESJZ3tHIdd_8Hsx5-48" style="edgeStyle=orthogonalEdgeStyle;rounded=0;orthogonalLoop=1;jettySize=auto;html=1;exitX=1;exitY=0.5;exitDx=0;exitDy=0;" edge="1" parent="1" source="hBVrESJZ3tHIdd_8Hsx5-50">
          <mxGeometry relative="1" as="geometry">
            <mxPoint x="415" y="1700" as="targetPoint" />
            <Array as="points">
              <mxPoint x="525" y="1850" />
              <mxPoint x="560" y="1850" />
              <mxPoint x="560" y="1700" />
            </Array>
          </mxGeometry>
        </mxCell>
        <mxCell id="hBVrESJZ3tHIdd_8Hsx5-49" style="edgeStyle=orthogonalEdgeStyle;rounded=0;orthogonalLoop=1;jettySize=auto;html=1;exitX=0.5;exitY=1;exitDx=0;exitDy=0;entryX=0.5;entryY=0;entryDx=0;entryDy=0;" edge="1" parent="1" source="hBVrESJZ3tHIdd_8Hsx5-50" target="hBVrESJZ3tHIdd_8Hsx5-56">
          <mxGeometry relative="1" as="geometry" />
        </mxCell>
        <mxCell id="hBVrESJZ3tHIdd_8Hsx5-50" value="Оформить&lt;br&gt;чек?" style="rhombus;whiteSpace=wrap;html=1;" vertex="1" parent="1">
          <mxGeometry x="435" y="1819" width="90" height="60" as="geometry" />
        </mxCell>
        <mxCell id="hBVrESJZ3tHIdd_8Hsx5-51" value="Нет" style="text;html=1;strokeColor=none;fillColor=none;align=center;verticalAlign=middle;whiteSpace=wrap;rounded=0;" vertex="1" parent="1">
          <mxGeometry x="525" y="1830" width="35" height="20" as="geometry" />
        </mxCell>
        <mxCell id="hBVrESJZ3tHIdd_8Hsx5-52" value="Да" style="text;html=1;strokeColor=none;fillColor=none;align=center;verticalAlign=middle;whiteSpace=wrap;rounded=0;" vertex="1" parent="1">
          <mxGeometry x="482.5" y="1879" width="25" height="20" as="geometry" />
        </mxCell>
        <mxCell id="hBVrESJZ3tHIdd_8Hsx5-53" value="А" style="ellipse;whiteSpace=wrap;html=1;aspect=fixed;" vertex="1" parent="1">
          <mxGeometry x="395" y="1179" width="40" height="40" as="geometry" />
        </mxCell>
        <mxCell id="hBVrESJZ3tHIdd_8Hsx5-54" value="B" style="ellipse;whiteSpace=wrap;html=1;aspect=fixed;" vertex="1" parent="1">
          <mxGeometry x="650" y="1550" width="40" height="40" as="geometry" />
        </mxCell>
        <mxCell id="hBVrESJZ3tHIdd_8Hsx5-55" value="C" style="ellipse;whiteSpace=wrap;html=1;aspect=fixed;" vertex="1" parent="1">
          <mxGeometry x="150" y="1624" width="40" height="40" as="geometry" />
        </mxCell>
        <mxCell id="hBVrESJZ3tHIdd_8Hsx5-56" value="F" style="ellipse;whiteSpace=wrap;html=1;aspect=fixed;" vertex="1" parent="1">
          <mxGeometry x="460" y="1915" width="40" height="40" as="geometry" />
        </mxCell>
        <mxCell id="hBVrESJZ3tHIdd_8Hsx5-59" value="&lt;br&gt;Ввод комментария" style="html=1;strokeWidth=2;shape=manualInput;whiteSpace=wrap;rounded=1;size=26;arcSize=11;" vertex="1" parent="1">
          <mxGeometry x="425" y="1454" width="90" height="60" as="geometry" />
        </mxCell>
        <mxCell id="hBVrESJZ3tHIdd_8Hsx5-60" value="" style="strokeWidth=2;html=1;shape=mxgraph.flowchart.annotation_2;align=left;labelPosition=right;pointerEvents=1;direction=west;" vertex="1" parent="1">
          <mxGeometry x="100" y="1619" width="50" height="50" as="geometry" />
        </mxCell>
        <mxCell id="hBVrESJZ3tHIdd_8Hsx5-61" value="К стр. 28" style="text;html=1;strokeColor=none;fillColor=none;align=center;verticalAlign=middle;whiteSpace=wrap;rounded=0;" vertex="1" parent="1">
          <mxGeometry x="715" y="1555" width="60" height="30" as="geometry" />
        </mxCell>
        <mxCell id="hBVrESJZ3tHIdd_8Hsx5-62" value="" style="strokeWidth=2;html=1;shape=mxgraph.flowchart.annotation_2;align=left;labelPosition=right;pointerEvents=1;direction=east;" vertex="1" parent="1">
          <mxGeometry x="690" y="1545" width="50" height="50" as="geometry" />
        </mxCell>
        <mxCell id="hBVrESJZ3tHIdd_8Hsx5-63" value="К стр. 28" style="text;html=1;strokeColor=none;fillColor=none;align=center;verticalAlign=middle;whiteSpace=wrap;rounded=0;" vertex="1" parent="1">
          <mxGeometry x="60" y="1629" width="60" height="30" as="geometry" />
        </mxCell>
        <mxCell id="hBVrESJZ3tHIdd_8Hsx5-64" value="" style="strokeWidth=2;html=1;shape=mxgraph.flowchart.annotation_2;align=left;labelPosition=right;pointerEvents=1;direction=east;" vertex="1" parent="1">
          <mxGeometry x="435" y="1174" width="50" height="50" as="geometry" />
        </mxCell>
        <mxCell id="hBVrESJZ3tHIdd_8Hsx5-65" value="Из стр. 28" style="text;html=1;strokeColor=none;fillColor=none;align=center;verticalAlign=middle;whiteSpace=wrap;rounded=0;" vertex="1" parent="1">
          <mxGeometry x="460" y="1184" width="70" height="30" as="geometry" />
        </mxCell>
        <mxCell id="hBVrESJZ3tHIdd_8Hsx5-68" value="К стр. 30" style="text;html=1;strokeColor=none;fillColor=none;align=center;verticalAlign=middle;whiteSpace=wrap;rounded=0;" vertex="1" parent="1">
          <mxGeometry x="525" y="1920" width="60" height="30" as="geometry" />
        </mxCell>
        <mxCell id="hBVrESJZ3tHIdd_8Hsx5-69" value="" style="strokeWidth=2;html=1;shape=mxgraph.flowchart.annotation_2;align=left;labelPosition=right;pointerEvents=1;direction=east;" vertex="1" parent="1">
          <mxGeometry x="500" y="1910" width="50" height="50" as="geometry" />
        </mxCell>
        <mxCell id="y8vCSm7RG8_c_LNQfvW3-2" value="C" style="ellipse;whiteSpace=wrap;html=1;aspect=fixed;" vertex="1" parent="1">
          <mxGeometry x="249" y="1965" width="40" height="40" as="geometry" />
        </mxCell>
        <mxCell id="y8vCSm7RG8_c_LNQfvW3-3" value="" style="strokeWidth=2;html=1;shape=mxgraph.flowchart.annotation_2;align=left;labelPosition=right;pointerEvents=1;direction=west;" vertex="1" parent="1">
          <mxGeometry x="199" y="1960" width="50" height="50" as="geometry" />
        </mxCell>
        <mxCell id="y8vCSm7RG8_c_LNQfvW3-4" value="К стр. 28" style="text;html=1;strokeColor=none;fillColor=none;align=center;verticalAlign=middle;whiteSpace=wrap;rounded=0;" vertex="1" parent="1">
          <mxGeometry x="159" y="1970" width="60" height="30" as="geometry" />
        </mxCell>
      </root>
    </mxGraphModel>
  </diagram>
  <diagram id="sOCzbO5bppizAIvDrWKt" name="Страница — 23">
    <mxGraphModel grid="1" page="1" gridSize="10" guides="1" tooltips="1" connect="1" arrows="1" fold="1" pageScale="1" pageWidth="827" pageHeight="1169" math="0" shadow="0">
      <root>
        <mxCell id="0" />
        <mxCell id="1" parent="0" />
        <mxCell id="mTjPimbbsZ1DkCRV4MPp-1" style="edgeStyle=orthogonalEdgeStyle;rounded=0;orthogonalLoop=1;jettySize=auto;html=1;exitX=1;exitY=0.5;exitDx=0;exitDy=0;entryX=0.5;entryY=0;entryDx=0;entryDy=0;" edge="1" parent="1" source="mTjPimbbsZ1DkCRV4MPp-54" target="mTjPimbbsZ1DkCRV4MPp-43">
          <mxGeometry relative="1" as="geometry">
            <Array as="points">
              <mxPoint x="425.03" y="1534" />
            </Array>
          </mxGeometry>
        </mxCell>
        <mxCell id="mTjPimbbsZ1DkCRV4MPp-21" style="edgeStyle=orthogonalEdgeStyle;rounded=0;orthogonalLoop=1;jettySize=auto;html=1;exitX=0.5;exitY=1;exitDx=0;exitDy=0;entryX=0.5;entryY=0;entryDx=0;entryDy=0;" edge="1" parent="1" source="mTjPimbbsZ1DkCRV4MPp-23" target="mTjPimbbsZ1DkCRV4MPp-27">
          <mxGeometry relative="1" as="geometry">
            <Array as="points">
              <mxPoint x="535" y="1330" />
              <mxPoint x="445" y="1330" />
            </Array>
          </mxGeometry>
        </mxCell>
        <mxCell id="mTjPimbbsZ1DkCRV4MPp-22" style="edgeStyle=orthogonalEdgeStyle;rounded=0;orthogonalLoop=1;jettySize=auto;html=1;exitX=0.5;exitY=1;exitDx=0;exitDy=0;entryX=0.5;entryY=0;entryDx=0;entryDy=0;" edge="1" parent="1" source="mTjPimbbsZ1DkCRV4MPp-23" target="mTjPimbbsZ1DkCRV4MPp-33">
          <mxGeometry relative="1" as="geometry">
            <Array as="points">
              <mxPoint x="535" y="1330" />
              <mxPoint x="595" y="1330" />
            </Array>
          </mxGeometry>
        </mxCell>
        <mxCell id="mTjPimbbsZ1DkCRV4MPp-23" value="Просмотр окна &quot;Кассовый чек&quot;" style="rounded=0;whiteSpace=wrap;html=1;" vertex="1" parent="1">
          <mxGeometry x="490" y="1260" width="90" height="60" as="geometry" />
        </mxCell>
        <mxCell id="mTjPimbbsZ1DkCRV4MPp-25" style="edgeStyle=orthogonalEdgeStyle;rounded=0;orthogonalLoop=1;jettySize=auto;html=1;exitX=0.5;exitY=1;exitDx=0;exitDy=0;entryX=1;entryY=0.5;entryDx=0;entryDy=0;" edge="1" parent="1" source="mTjPimbbsZ1DkCRV4MPp-27" target="mTjPimbbsZ1DkCRV4MPp-58">
          <mxGeometry relative="1" as="geometry">
            <mxPoint x="362.5" y="1520" as="targetPoint" />
            <Array as="points">
              <mxPoint x="445" y="1460" />
            </Array>
          </mxGeometry>
        </mxCell>
        <mxCell id="mTjPimbbsZ1DkCRV4MPp-26" style="edgeStyle=orthogonalEdgeStyle;rounded=0;orthogonalLoop=1;jettySize=auto;html=1;exitX=0;exitY=0.5;exitDx=0;exitDy=0;" edge="1" parent="1" source="mTjPimbbsZ1DkCRV4MPp-27">
          <mxGeometry relative="1" as="geometry">
            <mxPoint x="535" y="1240" as="targetPoint" />
            <Array as="points">
              <mxPoint x="370" y="1380" />
              <mxPoint x="370" y="1240" />
            </Array>
          </mxGeometry>
        </mxCell>
        <mxCell id="mTjPimbbsZ1DkCRV4MPp-27" value="Отправить&lt;br&gt;на почту?" style="rhombus;whiteSpace=wrap;html=1;" vertex="1" parent="1">
          <mxGeometry x="400" y="1350" width="90" height="60" as="geometry" />
        </mxCell>
        <mxCell id="mTjPimbbsZ1DkCRV4MPp-28" value="Нет" style="text;html=1;strokeColor=none;fillColor=none;align=center;verticalAlign=middle;whiteSpace=wrap;rounded=0;" vertex="1" parent="1">
          <mxGeometry x="370" y="1360" width="30" height="20" as="geometry" />
        </mxCell>
        <mxCell id="mTjPimbbsZ1DkCRV4MPp-29" style="edgeStyle=orthogonalEdgeStyle;rounded=0;orthogonalLoop=1;jettySize=auto;html=1;exitX=0;exitY=0.5;exitDx=0;exitDy=0;entryX=1;entryY=0.5;entryDx=0;entryDy=0;" edge="1" parent="1" source="mTjPimbbsZ1DkCRV4MPp-58" target="mTjPimbbsZ1DkCRV4MPp-31">
          <mxGeometry relative="1" as="geometry">
            <mxPoint x="291.5" y="1460" as="sourcePoint" />
          </mxGeometry>
        </mxCell>
        <mxCell id="mTjPimbbsZ1DkCRV4MPp-30" style="edgeStyle=orthogonalEdgeStyle;rounded=0;orthogonalLoop=1;jettySize=auto;html=1;exitX=0;exitY=0.5;exitDx=0;exitDy=0;" edge="1" parent="1" source="mTjPimbbsZ1DkCRV4MPp-31">
          <mxGeometry relative="1" as="geometry">
            <mxPoint x="535" y="1240" as="targetPoint" />
            <Array as="points">
              <mxPoint x="200" y="1460" />
              <mxPoint x="200" y="1240" />
            </Array>
          </mxGeometry>
        </mxCell>
        <mxCell id="mTjPimbbsZ1DkCRV4MPp-31" value="Нажатие кнопки отправить" style="rounded=0;whiteSpace=wrap;html=1;" vertex="1" parent="1">
          <mxGeometry x="210" y="1430" width="90" height="60" as="geometry" />
        </mxCell>
        <mxCell id="XesjR-lHhC-hQj60prPU-1" style="edgeStyle=orthogonalEdgeStyle;rounded=0;orthogonalLoop=1;jettySize=auto;html=1;exitX=0.5;exitY=1;exitDx=0;exitDy=0;entryX=0.5;entryY=0;entryDx=0;entryDy=0;" edge="1" parent="1" source="mTjPimbbsZ1DkCRV4MPp-33" target="XesjR-lHhC-hQj60prPU-2">
          <mxGeometry relative="1" as="geometry">
            <mxPoint x="595.3333333333335" y="1460" as="targetPoint" />
          </mxGeometry>
        </mxCell>
        <mxCell id="mTjPimbbsZ1DkCRV4MPp-33" value="Нажатие на кнопку &quot;Завершить сеанс&quot;" style="rounded=0;whiteSpace=wrap;html=1;" vertex="1" parent="1">
          <mxGeometry x="550" y="1360" width="90" height="60" as="geometry" />
        </mxCell>
        <mxCell id="mTjPimbbsZ1DkCRV4MPp-34" value="Да" style="text;html=1;strokeColor=none;fillColor=none;align=center;verticalAlign=middle;whiteSpace=wrap;rounded=0;" vertex="1" parent="1">
          <mxGeometry x="445" y="1410" width="30" height="20" as="geometry" />
        </mxCell>
        <mxCell id="mTjPimbbsZ1DkCRV4MPp-39" style="edgeStyle=orthogonalEdgeStyle;rounded=0;orthogonalLoop=1;jettySize=auto;html=1;exitX=0.5;exitY=1;exitDx=0;exitDy=0;entryX=0.508;entryY=0.204;entryDx=0;entryDy=0;entryPerimeter=0;" edge="1" parent="1" source="mTjPimbbsZ1DkCRV4MPp-40" target="mTjPimbbsZ1DkCRV4MPp-59">
          <mxGeometry relative="1" as="geometry">
            <mxPoint x="450" y="1774" as="targetPoint" />
          </mxGeometry>
        </mxCell>
        <mxCell id="mTjPimbbsZ1DkCRV4MPp-40" value="Нажатие на кнопку устройства &quot;Назад&quot;" style="rounded=0;whiteSpace=wrap;html=1;" vertex="1" parent="1">
          <mxGeometry x="380" y="1650" width="90" height="60" as="geometry" />
        </mxCell>
        <mxCell id="mTjPimbbsZ1DkCRV4MPp-41" style="edgeStyle=orthogonalEdgeStyle;rounded=0;orthogonalLoop=1;jettySize=auto;html=1;exitX=0.5;exitY=1;exitDx=0;exitDy=0;entryX=0.5;entryY=0;entryDx=0;entryDy=0;" edge="1" parent="1" source="mTjPimbbsZ1DkCRV4MPp-43" target="mTjPimbbsZ1DkCRV4MPp-40">
          <mxGeometry relative="1" as="geometry" />
        </mxCell>
        <mxCell id="mTjPimbbsZ1DkCRV4MPp-42" style="edgeStyle=orthogonalEdgeStyle;rounded=0;orthogonalLoop=1;jettySize=auto;html=1;exitX=1;exitY=0.5;exitDx=0;exitDy=0;entryX=0;entryY=0.5;entryDx=0;entryDy=0;" edge="1" parent="1" source="mTjPimbbsZ1DkCRV4MPp-43" target="XesjR-lHhC-hQj60prPU-2">
          <mxGeometry relative="1" as="geometry">
            <mxPoint x="846" y="1144" as="targetPoint" />
            <Array as="points">
              <mxPoint x="540" y="1584" />
              <mxPoint x="540" y="1494" />
            </Array>
          </mxGeometry>
        </mxCell>
        <mxCell id="mTjPimbbsZ1DkCRV4MPp-43" value="Закрыть&lt;br&gt;приложение?" style="rhombus;whiteSpace=wrap;html=1;" vertex="1" parent="1">
          <mxGeometry x="380" y="1554" width="90" height="60" as="geometry" />
        </mxCell>
        <mxCell id="mTjPimbbsZ1DkCRV4MPp-44" style="edgeStyle=orthogonalEdgeStyle;rounded=0;orthogonalLoop=1;jettySize=auto;html=1;exitX=0.5;exitY=1;exitDx=0;exitDy=0;entryX=0.5;entryY=0;entryDx=0;entryDy=0;" edge="1" parent="1" source="mTjPimbbsZ1DkCRV4MPp-59" target="mTjPimbbsZ1DkCRV4MPp-47">
          <mxGeometry relative="1" as="geometry">
            <mxPoint x="450" y="1834" as="sourcePoint" />
          </mxGeometry>
        </mxCell>
        <mxCell id="mTjPimbbsZ1DkCRV4MPp-45" style="edgeStyle=orthogonalEdgeStyle;rounded=0;orthogonalLoop=1;jettySize=auto;html=1;exitX=0;exitY=0.5;exitDx=0;exitDy=0;" edge="1" parent="1" source="mTjPimbbsZ1DkCRV4MPp-47">
          <mxGeometry relative="1" as="geometry">
            <mxPoint x="425" y="1630" as="targetPoint" />
            <Array as="points">
              <mxPoint x="340" y="1845" />
              <mxPoint x="340" y="1630" />
              <mxPoint x="420" y="1630" />
            </Array>
          </mxGeometry>
        </mxCell>
        <mxCell id="mTjPimbbsZ1DkCRV4MPp-46" style="edgeStyle=orthogonalEdgeStyle;rounded=0;orthogonalLoop=1;jettySize=auto;html=1;exitX=0.5;exitY=1;exitDx=0;exitDy=0;entryX=0.5;entryY=0;entryDx=0;entryDy=0;" edge="1" parent="1" source="mTjPimbbsZ1DkCRV4MPp-47" target="mTjPimbbsZ1DkCRV4MPp-52">
          <mxGeometry relative="1" as="geometry" />
        </mxCell>
        <mxCell id="mTjPimbbsZ1DkCRV4MPp-47" value="Данные верны?" style="rhombus;whiteSpace=wrap;html=1;" vertex="1" parent="1">
          <mxGeometry x="380" y="1815" width="90" height="60" as="geometry" />
        </mxCell>
        <mxCell id="mTjPimbbsZ1DkCRV4MPp-48" value="Нет" style="text;html=1;strokeColor=none;fillColor=none;align=center;verticalAlign=middle;whiteSpace=wrap;rounded=0;" vertex="1" parent="1">
          <mxGeometry x="345" y="1820" width="30" height="30" as="geometry" />
        </mxCell>
        <mxCell id="mTjPimbbsZ1DkCRV4MPp-49" value="Нет" style="text;html=1;strokeColor=none;fillColor=none;align=center;verticalAlign=middle;whiteSpace=wrap;rounded=0;" vertex="1" parent="1">
          <mxGeometry x="470" y="1559" width="30" height="31" as="geometry" />
        </mxCell>
        <mxCell id="mTjPimbbsZ1DkCRV4MPp-50" value="Да" style="text;html=1;strokeColor=none;fillColor=none;align=center;verticalAlign=middle;whiteSpace=wrap;rounded=0;" vertex="1" parent="1">
          <mxGeometry x="421.47" y="1614" width="36.03" height="20" as="geometry" />
        </mxCell>
        <mxCell id="mTjPimbbsZ1DkCRV4MPp-51" value="Да" style="text;html=1;strokeColor=none;fillColor=none;align=center;verticalAlign=middle;whiteSpace=wrap;rounded=0;" vertex="1" parent="1">
          <mxGeometry x="420" y="1875" width="37.5" height="20" as="geometry" />
        </mxCell>
        <mxCell id="mTjPimbbsZ1DkCRV4MPp-52" value="&lt;span style=&quot;font-size: 13px;&quot;&gt;Конец&lt;/span&gt;" style="rounded=1;whiteSpace=wrap;html=1;glass=0;shadow=0;arcSize=50;" vertex="1" parent="1">
          <mxGeometry x="380" y="1910" width="90" height="60" as="geometry" />
        </mxCell>
        <mxCell id="mTjPimbbsZ1DkCRV4MPp-54" value="D" style="ellipse;whiteSpace=wrap;html=1;aspect=fixed;" vertex="1" parent="1">
          <mxGeometry x="340" y="1514" width="40" height="40" as="geometry" />
        </mxCell>
        <mxCell id="mTjPimbbsZ1DkCRV4MPp-56" style="edgeStyle=orthogonalEdgeStyle;rounded=0;orthogonalLoop=1;jettySize=auto;html=1;exitX=0.5;exitY=1;exitDx=0;exitDy=0;entryX=0.5;entryY=0;entryDx=0;entryDy=0;" edge="1" parent="1" source="mTjPimbbsZ1DkCRV4MPp-57" target="mTjPimbbsZ1DkCRV4MPp-23">
          <mxGeometry relative="1" as="geometry">
            <mxPoint x="540.0000000000002" y="1250" as="targetPoint" />
          </mxGeometry>
        </mxCell>
        <mxCell id="mTjPimbbsZ1DkCRV4MPp-57" value="F" style="ellipse;whiteSpace=wrap;html=1;aspect=fixed;" vertex="1" parent="1">
          <mxGeometry x="515" y="1185" width="40" height="40" as="geometry" />
        </mxCell>
        <mxCell id="mTjPimbbsZ1DkCRV4MPp-58" value="&lt;br&gt;Ввод адреса эл. почты" style="html=1;strokeWidth=2;shape=manualInput;whiteSpace=wrap;rounded=1;size=26;arcSize=11;" vertex="1" parent="1">
          <mxGeometry x="330" y="1430" width="90" height="60" as="geometry" />
        </mxCell>
        <mxCell id="mTjPimbbsZ1DkCRV4MPp-59" value="&lt;br&gt;Ввод пароля администратора" style="html=1;strokeWidth=2;shape=manualInput;whiteSpace=wrap;rounded=1;size=26;arcSize=11;" vertex="1" parent="1">
          <mxGeometry x="380" y="1730" width="90" height="60" as="geometry" />
        </mxCell>
        <mxCell id="mTjPimbbsZ1DkCRV4MPp-60" value="" style="strokeWidth=2;html=1;shape=mxgraph.flowchart.annotation_2;align=left;labelPosition=right;pointerEvents=1;direction=west;" vertex="1" parent="1">
          <mxGeometry x="290" y="1509" width="50" height="50" as="geometry" />
        </mxCell>
        <mxCell id="mTjPimbbsZ1DkCRV4MPp-61" value="Из стр. 28" style="text;html=1;strokeColor=none;fillColor=none;align=center;verticalAlign=middle;whiteSpace=wrap;rounded=0;" vertex="1" parent="1">
          <mxGeometry x="250" y="1519" width="60" height="30" as="geometry" />
        </mxCell>
        <mxCell id="mTjPimbbsZ1DkCRV4MPp-66" value="" style="strokeWidth=2;html=1;shape=mxgraph.flowchart.annotation_2;align=left;labelPosition=right;pointerEvents=1;direction=east;" vertex="1" parent="1">
          <mxGeometry x="555" y="1180" width="50" height="50" as="geometry" />
        </mxCell>
        <mxCell id="mTjPimbbsZ1DkCRV4MPp-67" value="Из стр. 29" style="text;html=1;strokeColor=none;fillColor=none;align=center;verticalAlign=middle;whiteSpace=wrap;rounded=0;" vertex="1" parent="1">
          <mxGeometry x="584" y="1190" width="60" height="30" as="geometry" />
        </mxCell>
        <mxCell id="XesjR-lHhC-hQj60prPU-2" value="В" style="ellipse;whiteSpace=wrap;html=1;aspect=fixed;" vertex="1" parent="1">
          <mxGeometry x="575" y="1474" width="40" height="40" as="geometry" />
        </mxCell>
        <mxCell id="XesjR-lHhC-hQj60prPU-3" value="" style="strokeWidth=2;html=1;shape=mxgraph.flowchart.annotation_2;align=left;labelPosition=right;pointerEvents=1;direction=east;" vertex="1" parent="1">
          <mxGeometry x="615" y="1469" width="50" height="50" as="geometry" />
        </mxCell>
        <mxCell id="XesjR-lHhC-hQj60prPU-4" value="К стр. 28" style="text;html=1;strokeColor=none;fillColor=none;align=center;verticalAlign=middle;whiteSpace=wrap;rounded=0;" vertex="1" parent="1">
          <mxGeometry x="644" y="1479" width="60" height="30" as="geometry" />
        </mxCell>
      </root>
    </mxGraphModel>
  </diagram>
</mxfile>
